<?xml version="1.0" encoding="UTF-8"?>
<svg width="116px" height="40px" viewBox="0 0 116 40" version="1.1" xmlns="http://www.w3.org/2000/svg" xmlns:xlink="http://www.w3.org/1999/xlink">
    <!-- Generator: Sketch 48.2 (47327) - http://www.bohemiancoding.com/sketch -->
    <title>logo</title>
    <desc>Created with Sketch.</desc>
    <defs>
        <polygon id="path-1" points="0.295458333 0.109041667 15.3033333 0.109041667 15.3033333 22.4877917 0.295458333 22.4877917"></polygon>
        <polygon id="path-3" points="6.84155304e-05 0.376666667 35.5391315 0.376666667 35.5391315 33.5861809 6.84155304e-05 33.5861809"></polygon>
    </defs>
    <g id="Artboard" stroke="none" stroke-width="1" fill="none" fill-rule="evenodd" transform="translate(-274.000000, -1037.000000)">
        <g id="logo" transform="translate(274.000000, 1037.000000)">
            <g id="Group-19" transform="translate(41.000000, 8.000000)">
                <path d="M9.96866667,18.8407083 L5.8345,18.8407083 L5.8345,14.1615417 L9.96866667,14.1615417 C11.7295,14.1615417 12.3565833,15.3615417 12.3565833,16.4844583 C12.3565833,17.623625 11.7295,18.8407083 9.96866667,18.8407083 Z M5.8345,5.336125 L9.67783333,5.336125 C11.8636667,5.336125 12.03325,7.01570833 12.03325,7.529875 C12.03325,8.044875 11.8636667,9.72445833 9.67783333,9.72445833 L5.8345,9.72445833 L5.8345,5.336125 Z M14.682,12.0690417 L14.2653333,11.809875 L14.6703333,11.533625 C15.5599167,10.927375 17.0524167,9.56279167 17.0524167,7.23904167 C17.0524167,3.26945833 14.4286667,0.899041667 10.03325,0.899041667 L0.81575,0.899041667 L0.81575,23.2777917 L10.51825,23.2777917 C14.7478333,23.2777917 17.37575,20.798625 17.37575,16.8077917 C17.37575,13.7402917 15.5561667,12.611125 14.682,12.0690417 Z" id="Fill-1" fill="#274161"></path>
                <path d="M28.653625,18.8407083 L24.519875,18.8407083 L24.519875,14.1615417 L28.653625,14.1615417 C30.4144583,14.1615417 31.0419583,15.3615417 31.0419583,16.4844583 C31.0419583,17.623625 30.4144583,18.8407083 28.653625,18.8407083 Z M24.519875,5.336125 L28.3627917,5.336125 C30.548625,5.336125 30.718625,7.01570833 30.718625,7.529875 C30.718625,8.044875 30.548625,9.72445833 28.3627917,9.72445833 L24.519875,9.72445833 L24.519875,5.336125 Z M33.3669583,12.0690417 L32.949875,11.809875 L33.3552917,11.533625 C34.244875,10.927375 35.737375,9.56279167 35.737375,7.23904167 C35.737375,3.26945833 33.113625,0.899041667 28.7182083,0.899041667 L19.501125,0.899041667 L19.501125,23.2777917 L29.2032083,23.2777917 C33.4332083,23.2777917 36.0607083,20.798625 36.0607083,16.8077917 C36.0607083,13.7402917 34.241125,12.611125 33.3669583,12.0690417 Z" id="Fill-3" fill="#274161"></path>
                <path d="M44.5345,15.7694167 L47.0578333,8.27941667 L49.4228333,15.7694167 L44.5345,15.7694167 Z M44.9436667,0.899 L36.8028333,23.27775 L42.0324167,23.27775 L43.1640833,19.8510833 L50.7095,19.8510833 L51.7765833,23.27775 L57.0015833,23.27775 L48.86075,0.899 L44.9436667,0.899 Z" id="Fill-5" fill="#339CD0"></path>
                <g id="Group-9" transform="translate(59.000000, 0.790042)">
                    <mask id="mask-2" fill="white">
                        <use xlink:href="#path-1"></use>
                    </mask>
                    <g id="Clip-8"></g>
                    <polygon id="Fill-7" fill="#274161" mask="url(#mask-2)" points="15.303375 4.513625 15.303375 0.109041667 0.295458333 0.109041667 0.295458333 22.4877917 15.303375 22.4877917 15.303375 18.0827917 5.31420833 18.0827917 5.31420833 13.4032083 13.8487917 13.4032083 13.8487917 8.998625 5.31420833 8.998625 5.31420833 4.513625"></polygon>
                </g>
            </g>
            <g id="Group-20">
                <g id="Group-12" transform="translate(0.000000, 0.040042)">
                    <mask id="mask-4" fill="white">
                        <use xlink:href="#path-3"></use>
                    </mask>
                    <g id="Clip-11"></g>
                    <path d="M2.21625,5.31508333 C2.21625,5.31508333 -2.99458333,18.5255 2.56416667,29.5375833 C8.12333333,40.5496667 39.5158333,26.6888333 35.1183333,16.5959167 C30.17625,5.25258333 7.08041667,-6.5445 2.21625,5.31508333" id="Fill-10" fill="#339CD0" mask="url(#mask-4)"></path>
                </g>
                <path d="M20.96225,38.5093333 C22.1801667,38.0555833 28.6885,35.3893333 24.4743333,34.6693333 C21.9905833,34.2451667 4.45475,34.9343333 6.4485,37.8889167 C7.11766667,38.8805833 14.59725,40.87975 20.96225,38.5093333" id="Fill-13" fill="#339CD0"></path>
            </g>
        </g>
    </g>
</svg>