<?xml version="1.0" encoding="UTF-8"?>
<svg width="163px" height="39px" viewBox="0 0 163 39" version="1.1" xmlns="http://www.w3.org/2000/svg" xmlns:xlink="http://www.w3.org/1999/xlink">
    <!-- Generator: Sketch 52.2 (67145) - http://www.bohemiancoding.com/sketch -->
    <title>logo-purple</title>
    <desc>Created with Sketch.</desc>
    <g id="Symbols" stroke="none" stroke-width="1" fill="none" fill-rule="evenodd">
        <g id="logo_img" fill="#643789">
            <g id="LOGO-新-[转换]">
                <g>
                    <path d="M52.9180147,29.52 L52.9180147,32.64 L55.5705882,29.52 L57.5294118,29.52 L54.6319853,32.76 L57.7742647,36.8 L55.6930147,36.8 L52.9180147,33.08 L52.9180147,36.8 L51.2040441,36.8 L51.2040441,29.52 L52.9180147,29.52 Z M64.4261029,29.52 L66.1400735,29.52 L66.1400735,34.08 C66.0584559,35.88 64.9158088,36.84 62.7121324,36.88 C60.4676471,36.84 59.325,35.88 59.2433824,34.08 L59.2433824,29.52 L60.9573529,29.52 L60.9573529,33.48 C60.8349265,35.08 61.4470588,35.84 62.7121324,35.8 C63.9772059,35.84 64.5485294,35.08 64.4261029,33.48 L64.4261029,29.52 Z M69.4047794,36.8 L67.7724265,36.8 L70.6290441,29.52 L72.6286765,29.52 L75.4036765,36.8 L73.6897059,36.8 L73.0775735,35.28 L69.9761029,35.28 L69.4047794,36.8 Z M70.425,34.04 L72.6694853,34.04 L71.6084559,30.92 L71.5676471,30.92 L70.425,34.04 Z M79.0356618,36.8 L79.0356618,34.44 L76.3422794,29.52 L78.3419118,29.52 L79.9742647,32.84 L81.6474265,29.52 L83.3613971,29.52 L80.7088235,34.44 L80.7088235,36.8 L79.0356618,36.8 Z M90.1764706,29.52 L91.8904412,29.52 L91.8904412,34.08 C91.8088235,35.88 90.6661765,36.84 88.4625,36.88 C86.2180147,36.84 85.0753676,35.88 84.99375,34.08 L84.99375,29.52 L86.7077206,29.52 L86.7077206,33.48 C86.5852941,35.08 87.1566176,35.84 88.4625,35.8 C89.7275735,35.84 90.2988971,35.08 90.1764706,33.48 L90.1764706,29.52 Z M94.0125,36.8 L94.0125,29.52 L99.3176471,29.52 L99.3176471,30.72 L95.7264706,30.72 L95.7264706,32.4 L99.0727941,32.4 L99.0727941,33.64 L95.7264706,33.64 L95.7264706,35.56 L99.4400735,35.56 L99.4400735,36.8 L94.0125,36.8 Z M101.64375,32.52 L106.010294,32.52 L106.010294,33.72 L101.64375,33.72 L101.64375,32.52 Z M108.458824,36.8 L108.458824,29.52 L113.763971,29.52 L113.763971,30.72 L110.172794,30.72 L110.172794,32.4 L113.519118,32.4 L113.519118,33.64 L110.172794,33.64 L110.172794,35.56 L113.886397,35.56 L113.886397,36.8 L108.458824,36.8 Z M119.191544,34.04 L117.314338,36.8 L115.477941,36.8 L118.252941,33 L115.641176,29.52 L117.722426,29.52 L119.354779,32 L121.06875,29.52 L122.864338,29.52 L120.252574,33 L123.027574,36.8 L120.946324,36.8 L119.191544,34.04 Z M126.373897,36.8 L124.700735,36.8 L124.700735,29.52 L127.149265,29.52 C129.312132,29.48 130.373162,30.24 130.332353,31.76 C130.291544,33.16 129.352941,33.92 127.598162,34 L126.373897,34 L126.373897,36.8 Z M126.373897,30.72 L126.373897,32.76 L126.904412,32.76 C128.047059,32.88 128.577574,32.52 128.577574,31.72 C128.577574,31 128.00625,30.68 126.904412,30.68 L126.373897,30.68 L126.373897,30.72 Z M133.801103,33.88 L133.801103,36.8 L132.087132,36.8 L132.087132,29.52 L135.474265,29.52 C137.269853,29.56 138.167647,30.16 138.208456,31.4 C138.167647,32.36 137.637132,32.92 136.576103,33.16 L136.576103,33.2 C137.351471,33.28 137.800368,33.8 138.004412,34.8 C138.045221,34.92 138.045221,35 138.045221,35.04 C138.126838,35.92 138.290074,36.48 138.453309,36.76 L136.616912,36.76 C136.453676,36.12 136.33125,35.48 136.33125,34.8 C136.290441,34.16 136.045588,33.84 135.596691,33.84 L133.801103,33.84 L133.801103,33.88 Z M133.801103,30.72 L133.801103,32.64 L135.188603,32.64 C136.004779,32.64 136.372059,32.28 136.372059,31.6 C136.372059,30.96 135.963971,30.68 135.188603,30.68 L133.801103,30.68 L133.801103,30.72 Z M140.167279,36.8 L140.167279,29.52 L145.472426,29.52 L145.472426,30.72 L141.88125,30.72 L141.88125,32.4 L145.186765,32.4 L145.186765,33.64 L141.88125,33.64 L141.88125,35.56 L145.594853,35.56 L145.594853,36.8 L140.167279,36.8 Z M153.470956,31.6 L151.838603,31.6 C151.797794,30.88 151.389706,30.48 150.573529,30.48 C149.757353,30.52 149.308456,30.84 149.308456,31.44 C149.308456,31.92 149.716544,32.24 150.532721,32.44 C150.614338,32.48 150.695956,32.48 150.736765,32.48 C150.777574,32.48 150.818382,32.48 150.940809,32.52 C152.777206,32.88 153.715809,33.52 153.675,34.52 C153.634191,36.04 152.532353,36.84 150.287868,36.88 C148.247426,36.88 147.227206,36.08 147.268015,34.48 L148.981985,34.48 C148.981985,35.32 149.430882,35.76 150.287868,35.8 C151.308088,35.76 151.838603,35.44 151.879412,34.84 C151.879412,34.36 151.389706,34 150.369485,33.8 C150.247059,33.76 150.124632,33.76 150.083824,33.72 C148.329044,33.36 147.472059,32.68 147.472059,31.72 C147.553676,30.24 148.655515,29.44 150.777574,29.32 C152.491544,29.44 153.389338,30.16 153.470956,31.6 Z M161.428676,31.6 L159.796324,31.6 C159.755515,30.88 159.347426,30.48 158.53125,30.48 C157.715074,30.52 157.266176,30.84 157.266176,31.44 C157.266176,31.92 157.674265,32.24 158.490441,32.44 C158.572059,32.48 158.653676,32.48 158.694485,32.48 C158.735294,32.48 158.776103,32.48 158.898529,32.52 C160.734926,32.88 161.673529,33.52 161.632721,34.52 C161.591912,36.04 160.490074,36.84 158.245588,36.88 C156.205147,36.88 155.184926,36.08 155.225735,34.48 L156.939706,34.48 C156.939706,35.32 157.388603,35.76 158.245588,35.8 C159.265809,35.76 159.796324,35.44 159.837132,34.84 C159.837132,34.36 159.347426,34 158.327206,33.8 C158.204779,33.76 158.082353,33.76 158.041544,33.72 C156.286765,33.36 155.429779,32.68 155.429779,31.72 C155.511397,30.24 156.613235,29.44 158.735294,29.32 C160.449265,29.44 161.347059,30.16 161.428676,31.6 Z M65.8333991,25.9202801 C65.7111458,25.9202801 65.5481414,25.8804201 65.4666393,25.7608402 L63.1845778,23.4091022 C62.9400713,23.1699424 62.6548136,22.9307826 62.817818,22.5720429 C62.8993202,22.3727431 63.1030757,22.2531632 63.3068311,22.2531632 C63.3883333,22.2531632 63.4698355,22.2531632 63.5513377,22.2930231 C63.673591,22.3328831 63.7958443,22.3727431 63.9180976,22.3727431 L65.7518969,22.6119029 C65.9964035,22.3727431 66.200159,22.0937233 66.3224123,21.8545635 C66.5261678,21.4958238 66.6484211,21.1769441 66.7706743,20.8182044 C66.8521765,20.3797447 66.8929276,20.1405849 66.8929276,19.6622653 C66.9336787,19.3433856 66.8929276,19.0643658 66.8114254,18.825206 C66.200159,18.6657662 65.3851371,18.6657662 64.8553728,18.7853461 C64.2033553,18.9447859 63.5105866,19.2238057 62.7770669,19.6622653 C62.7363158,19.6622653 62.6955647,19.7021253 62.6955647,19.7021253 C62.6548136,19.7021253 62.6140625,19.7419853 62.4918092,19.8217052 C62.1658004,20.060865 61.7175384,20.021005 61.5137829,19.7021253 C61.3100274,19.3433856 61.1877741,19.0245059 61.1062719,18.7454861 C61.0655208,18.5063263 61.0247697,17.9881468 61.7990406,17.6294071 C62.1250493,17.3902473 62.3695559,17.1112275 62.5325603,16.8322077 C62.6548136,16.6329079 62.6548136,16.3937481 62.6955647,16.1545883 C62.4918092,16.1944483 62.1250493,16.2741682 61.9212939,16.3140282 C61.5137829,16.3937481 61.0655208,16.3140282 60.6580099,16.1545883 C60.6580099,16.1545883 60.6172588,16.1545883 60.6172588,16.1147283 C60.0059923,15.7559886 59.8429879,15.4371089 60.0467434,15.0783692 C60.2097478,14.7993494 60.6172588,14.6797695 60.9025164,14.6399096 C62.1250493,14.4804697 63.1845778,14.3608898 64.2033553,14.2014499 C65.2628838,14.0420101 66.4039145,13.8028503 67.5856963,13.5238305 L67.8302028,13.4441106 C67.8302028,13.4441106 67.8709539,13.4441106 67.8709539,13.4441106 C68.2784649,13.3643906 68.6452248,13.3643906 68.9712336,13.4441106 C69.2564912,13.5238305 69.5825,13.6035504 69.990011,13.8028503 C70.0307621,13.8028503 70.0307621,13.8427102 70.0715132,13.8427102 C70.2345175,13.9224302 70.6420285,14.12173 70.6827796,14.6000496 C70.6827796,14.8392094 70.6012774,15.1979491 69.990011,15.4769689 C69.9492599,15.4769689 69.9085088,15.5168288 69.8677577,15.5168288 L67.3411897,15.9154285 L64.4071107,16.2741682 C64.3663596,16.513328 64.4071107,16.6727679 64.2441064,17.3902473 L67.4226919,16.6329079 C67.6671985,16.553188 68.0747094,16.553188 68.3599671,16.7126278 L68.4822204,16.7524878 C69.0119846,17.0713675 69.5825,17.4301072 69.8677577,17.9881468 C70.0307621,18.3070265 69.9492599,18.6657662 69.6232511,19.2636657 C69.3379934,20.021005 69.174989,20.5391846 69.0934868,21.216804 C68.9712336,21.9741434 68.7674781,22.7713427 68.5229715,23.648262 C68.319216,24.2461615 67.9932072,24.7244811 67.5856963,25.1629407 C67.1374342,25.6412603 66.5669189,25.9202801 65.9556524,26 C65.8741502,25.9202801 65.8741502,25.9202801 65.8333991,25.9202801 Z M126.511782,25.6014003 C126.471031,25.6014003 126.43028,25.6014003 126.348777,25.5615404 C124.881738,25.1230807 123.45545,24.6049012 122.151414,24.0468616 C120.88813,23.4888221 119.502593,22.9706426 118.035554,22.5321829 C116.853772,22.0937233 115.834995,21.8147035 114.93847,21.6951236 C114.123448,21.5755437 113.145422,21.7748436 112.045143,22.3328831 C111.96364,22.3727431 111.882138,22.3727431 111.800636,22.3727431 C111.515378,22.3727431 111.230121,22.2930231 110.904112,22.1335833 C110.618854,21.9741434 110.374348,21.8147035 110.170592,21.6552637 C110.170592,21.6552637 110.129841,21.6154037 110.129841,21.6154037 C109.926086,21.3762439 109.803832,21.216804 109.763081,21.0573642 C109.72233,20.8182044 109.803832,20.4196047 110.374348,20.3000248 L114.123448,19.8217052 C114.123448,19.7419853 114.123448,19.6622653 114.123448,19.5426854 C114.001195,18.825206 113.838191,18.1077266 113.593684,17.4699672 C113.349178,16.7923478 113.145422,16.0350084 112.982418,15.2378091 C112.982418,15.1580891 112.982418,15.0783692 112.982418,14.9986493 L113.267675,14.08187 C112.860164,14.2413099 112.452654,14.4007498 112.085894,14.4804697 C111.556129,14.6000496 111.026365,14.5203297 110.496601,14.2413099 C110.252094,14.12173 109.966837,13.9622901 109.885334,13.6434104 C109.844583,13.5238305 109.763081,13.0455109 110.496601,12.8063511 C110.537352,12.8063511 110.578103,12.7664911 110.618854,12.7664911 C111.107867,12.6867712 111.556129,12.6070513 112.004391,12.4874714 C112.411902,12.3678915 112.900916,12.1287317 113.43068,11.809852 L113.634435,11.6902721 C114.041946,11.2916724 114.612462,11.2518124 115.182977,11.5706922 C115.590488,11.809852 115.957248,12.0091518 116.283257,12.2483116 C116.324008,12.2881716 116.324008,12.2881716 116.364759,12.3280315 C116.609265,12.6070513 117.016776,13.0455109 116.731519,13.4441106 C116.690768,13.5238305 116.609265,13.6035504 116.201754,14.0420101 C115.67199,14.6399096 115.345981,15.1580891 115.264479,15.5566888 C115.182977,15.9154285 115.264479,16.4336081 115.549737,17.0713675 C115.549737,17.1112275 115.590488,17.1112275 115.590488,17.1510875 C115.712741,17.6294071 115.794243,18.0678667 115.875746,18.4664663 C115.957248,18.904926 115.997999,19.4231055 115.916497,19.9811451 C115.916497,20.021005 115.916497,20.060865 115.875746,20.100725 C115.875746,20.100725 115.875746,20.1405849 115.875746,20.1405849 C116.079501,20.1804449 116.283257,20.2601648 116.527763,20.3398848 C116.446261,19.9811451 116.731519,19.8217052 116.935274,19.7021253 C117.954052,19.1042258 118.932078,18.3070265 119.828602,17.4301072 C120.562122,16.6727679 121.25489,15.8755685 121.866157,14.9986493 L121.010384,15.1580891 C120.928882,15.5965488 120.684375,15.7559886 120.521371,15.8357086 C120.48062,15.8755685 120.358366,15.8755685 120.276864,15.8755685 C119.869353,15.8755685 119.624846,15.4769689 119.543344,15.357389 C119.176584,14.6797695 118.891327,14.08187 118.687571,13.4839705 C118.483816,12.965791 118.157807,12.4077515 117.750296,11.769992 C117.668794,11.6504121 117.424287,11.4112523 117.505789,11.0923726 C117.546541,10.9329327 117.668794,10.7734928 117.831798,10.7336329 C117.872549,10.6937729 117.994803,10.6937729 118.117056,10.6539129 C118.157807,10.6539129 118.239309,10.614053 118.320811,10.6539129 C119.095082,10.7336329 119.828602,10.7336329 120.439868,10.7336329 C121.051135,10.6937729 121.743904,10.614053 122.518174,10.4546131 C122.518174,10.4546131 122.558925,10.4546131 122.558925,10.4147531 L122.558925,9.01965431 C122.192166,9.05951427 121.825406,9.09937424 121.499397,9.21895414 C120.969633,9.33853404 120.48062,9.29867407 119.950855,9.09937424 C119.543344,8.90007441 119.339589,8.74063454 119.258087,8.50147474 C119.176584,8.30217491 119.217336,8.14273505 119.298838,7.98329518 C119.461842,7.74413538 119.7471,7.66441545 119.991606,7.66441545 L122.192166,7.10637592 C122.35517,7.06651595 122.477423,7.06651595 122.558925,7.02665599 C122.558925,6.98679602 122.558925,6.90707609 122.558925,6.78749619 C122.558925,6.18959669 122.477423,5.79099703 122.35517,5.19309753 C122.232917,4.59519803 122.029161,3.99729854 121.743904,3.39939904 C121.458646,2.76163958 121.825406,2.48261981 121.947659,2.40289988 C122.151414,2.28331998 122.35517,2.24346002 122.558925,2.28331998 C123.08869,2.28331998 123.577703,2.44275985 124.025965,2.68191965 C124.392725,2.92107944 124.840987,3.39939904 124.677982,4.35603824 L124.514978,6.54833639 L126.185773,6.03015683 C126.471031,5.83085699 126.756288,5.79099703 127.041546,5.87071696 C127.163799,5.91057693 127.326804,5.99029686 127.530559,6.07001679 C128.264079,6.38889652 128.30483,6.74763622 128.223328,7.02665599 C128.141826,7.26581578 127.93807,7.50497558 127.530559,7.74413538 C127.489808,7.78399535 127.449057,7.78399535 127.408306,7.78399535 C126.878542,7.94343521 126.43028,8.06301511 125.982018,8.22245498 C125.493004,8.38189484 124.96324,8.50147474 124.433476,8.54133471 C124.433476,8.58119468 124.433476,8.66091461 124.433476,8.74063454 L124.433476,9.8567136 L127.000795,9.2588141 C127.489808,8.97979434 128.060323,8.97979434 128.549337,9.29867407 C128.956848,9.53783387 129.364359,9.8567136 129.731118,10.2553133 C129.731118,10.2553133 129.77187,10.2951732 129.77187,10.2951732 C129.975625,10.574193 130.17938,10.9329327 129.894123,11.2518124 C129.853372,11.2916724 129.812621,11.3315324 129.486612,11.5308322 C129.242105,11.6902721 129.03835,11.8497119 128.875345,12.0490118 C128.67159,12.2483116 128.508586,12.4476114 128.427083,12.6469113 C128.427083,12.6867712 128.386332,12.6867712 128.386332,12.7266312 C128.386332,12.7664911 128.345581,12.7664911 128.345581,12.8063511 C128.345581,12.8462111 128.386332,12.8462111 128.427083,12.886071 C128.427083,12.886071 128.467834,12.925931 128.467834,12.925931 C128.549337,13.0455109 128.753092,13.3643906 128.630839,13.6434104 C128.590088,13.8028503 128.427083,13.9224302 128.264079,13.9622901 C128.182577,14.0021501 128.060323,14.0021501 127.856568,14.0420101 L124.555729,14.5203297 C124.514978,14.5203297 124.514978,14.5203297 124.474227,14.5203297 L124.474227,14.7594895 C124.474227,14.9986493 124.474227,15.2378091 124.433476,15.4769689 C124.555729,15.3972489 124.677982,15.357389 124.881738,15.357389 C124.922489,15.357389 125.003991,15.357389 125.044742,15.357389 C125.656009,15.317529 126.185773,15.357389 126.715537,15.5168288 C127.20455,15.6364087 127.775066,15.8357086 128.386332,16.0748684 C128.427083,16.0748684 128.427083,16.0748684 128.467834,16.1147283 C128.956848,16.3937481 129.364359,16.7524878 129.649616,17.1510875 C129.934874,17.5895471 130.097878,18.0678667 130.138629,18.5461863 C130.138629,18.5860462 130.138629,18.6259062 130.138629,18.6657662 L129.975625,19.3035256 C129.934874,19.4231055 129.853372,19.5426854 129.731118,19.6224054 C129.608865,19.7021253 129.445861,19.7021253 129.323607,19.6622653 C128.467834,19.4231055 127.693564,19.0245059 126.960044,18.5063263 C126.267275,17.9881468 125.533755,17.3503873 124.759485,16.553188 L124.474227,16.2343082 C124.474227,16.9916476 124.474227,17.709127 124.514978,18.4664663 C124.555729,19.7021253 124.392725,20.8979243 123.944463,22.0538633 C124.311223,22.0937233 124.637231,22.1734432 124.96324,22.2133032 C127.57131,22.5720429 130.383136,22.6517628 133.398717,22.452463 L133.643224,22.452463 C133.846979,22.452463 134.050735,22.6119029 134.132237,22.8112027 C134.213739,23.0105025 134.132237,23.2496623 133.928481,23.3692422 L133.683975,23.5286821 C132.37994,24.2461615 131.157407,24.7244811 130.016376,25.0035008 C128.916096,25.2825206 127.693564,25.4818204 126.43028,25.6014003 C126.552533,25.6014003 126.511782,25.6014003 126.511782,25.6014003 Z M117.628043,20.5790446 C119.339589,21.0573642 121.010384,21.4958238 122.640428,21.8147035 C122.599677,21.7349836 122.558925,21.6154037 122.518174,21.5356838 C122.395921,21.256664 122.35517,20.9377843 122.35517,20.6189045 L122.599677,17.5098272 C121.866157,18.2273065 121.132637,18.825206 120.399117,19.2636657 C119.543344,19.7419853 118.606069,20.1804449 117.628043,20.5790446 Z M120.684375,12.2881716 C120.765877,12.5273314 120.806628,12.7664911 120.847379,13.0056509 C120.88813,13.1650908 120.928882,13.3245307 121.010384,13.4441106 C121.25489,13.4042506 121.458646,13.3643906 121.703152,13.3643906 C121.98841,13.3245307 122.314419,13.2846707 122.640428,13.1650908 C122.640428,12.8462111 122.640428,12.4874714 122.640428,12.0091518 C122.640428,11.9692918 122.640428,11.9294319 122.640428,11.8895719 L122.599677,11.8895719 L120.684375,12.2881716 Z M124.555729,11.4511123 C124.555729,11.4909722 124.555729,11.5706922 124.555729,11.6105521 L124.555729,12.8462111 C124.840987,12.8063511 125.126245,12.7664911 125.411502,12.7266312 C125.69676,12.6867712 125.982018,12.6070513 126.267275,12.5273314 C126.308026,12.3678915 126.389529,12.1685917 126.389529,12.0091518 C126.43028,11.769992 126.471031,11.4909722 126.511782,11.1720925 C126.511782,11.1720925 126.511782,11.1720925 126.511782,11.1322325 L124.555729,11.4511123 Z M97.8230099,25.3622405 C97.7822588,25.3622405 97.7007566,25.3622405 97.6600055,25.3223806 C95.4594463,24.6049012 93.3403893,23.568542 91.3843366,22.2930231 C89.5097862,21.0573642 87.4314803,19.8615652 85.230921,18.7853461 C85.230921,18.7853461 85.19017,18.7853461 85.19017,18.7853461 C85.19017,18.7853461 85.19017,18.825206 85.19017,18.825206 C85.19017,18.825206 85.19017,18.865066 85.1494189,18.865066 C84.5789035,19.7818452 83.8861349,20.5790446 83.1526151,21.256664 C82.4190954,21.9342834 81.6040735,22.5321829 80.7075493,23.0902225 C80.6260471,23.1300824 80.585296,23.1699424 80.5037939,23.1699424 C80.5037939,23.1699424 80.4630428,23.2098024 80.4222917,23.2098024 C80.3407895,23.2496623 80.2185362,23.3293823 80.0555318,23.3293823 C79.8517763,23.3293823 79.6480208,23.2098024 79.5665186,23.0105025 C79.4442653,22.6916228 79.6887719,22.452463 79.8110252,22.3727431 L80.2592873,21.8944235 C81.400318,20.7384844 82.256091,19.6224054 82.8266064,18.6657662 C83.3563706,17.709127 83.6823794,16.6329079 83.8046327,15.5168288 C83.8046327,14.6399096 84.4566502,14.6000496 84.5789035,14.6000496 C84.6604057,14.6000496 84.7011568,14.6000496 84.782659,14.6399096 C85.0271656,14.6797695 85.3124232,14.7993494 85.638432,14.9189293 C85.6791831,14.9189293 85.7199342,14.9587893 85.7199342,14.9587893 C86.045943,15.1979491 86.2496985,15.357389 86.3719518,15.4769689 C86.6164583,15.6762687 86.8202138,16.0748684 86.2904496,16.8322077 C86.2496985,16.9517876 86.1274452,17.1112275 86.045943,17.3503873 C86.045943,17.3503873 86.045943,17.3902473 86.045943,17.3902473 C86.2496985,17.5098272 86.4534539,17.6294071 86.6572094,17.709127 C86.8202138,17.7888469 87.0239693,17.8685669 87.1869737,17.9482868 L87.1869737,14.08187 C86.3719518,14.2014499 85.5976809,14.3210298 84.8641612,14.4804697 C84.1306414,14.6399096 83.3156195,14.8392094 82.4598465,15.0385092 C82.0115844,15.1979491 81.6448246,15.1979491 81.3595669,15.0783692 C81.1965625,14.9986493 80.9520559,14.8392094 80.6667982,14.6797695 C80.6667982,14.6797695 80.6260471,14.6399096 80.6260471,14.6399096 C79.9740296,14.08187 80.3000384,13.6434104 80.3815406,13.5636905 C80.4630428,13.4441106 80.7075493,13.2448107 81.1150603,13.2049508 C82.1338377,13.0853709 83.111864,12.925931 84.0491393,12.8063511 C84.9864145,12.6469113 86.0051919,12.4874714 87.0647204,12.2084516 C87.1054715,12.2084516 87.1054715,12.2084516 87.1462226,12.2084516 C87.1462226,12.1287317 87.1869737,12.0490118 87.1869737,11.9294319 L87.1869737,10.614053 C86.7794627,10.6539129 86.3312007,10.7336329 85.8421875,10.7734928 C85.230921,10.8133528 84.6604057,10.7336329 84.1306414,10.4546131 C83.8046327,10.2553133 83.6008772,10.0161535 83.5601261,9.77699367 C83.519375,9.57769384 83.5601261,9.41825397 83.6823794,9.2588141 C83.8046327,9.09937424 84.0083882,9.01965431 84.2936458,9.01965431 L86.8202138,8.62105464 C86.9832182,8.58119468 87.0647204,8.58119468 87.1462226,8.54133471 C87.1462226,8.50147474 87.1869737,8.42175481 87.1869737,8.34203488 C87.1462226,7.62455548 87.1054715,6.90707609 87.0647204,6.22945666 C87.0239693,5.59169719 86.8202138,4.91407777 86.494205,4.2763183 C86.494205,4.23645834 86.4534539,4.23645834 86.4534539,4.19659837 C86.3719518,3.87771864 86.4534539,3.59869887 86.6572094,3.39939904 C86.8609649,3.23995918 87.1054715,3.20009921 87.3907292,3.23995918 C87.9204934,3.23995918 88.4502577,3.43925901 88.9800219,3.83785867 C89.6320395,4.2763183 89.835795,4.91407777 89.5912884,5.67141713 L89.2652796,8.18259501 L90.3248081,8.02315515 C90.4063103,8.02315515 90.4470614,8.02315515 90.5285636,8.02315515 C91.0583278,8.14273505 91.4250877,8.38189484 91.6288432,8.74063454 C91.7510965,8.93993437 91.7510965,9.13923421 91.6695943,9.33853404 C91.547341,9.69727374 91.13983,9.89657357 90.8545724,10.0161535 C90.8138213,10.0161535 90.7730702,10.0560134 90.7323191,10.0560134 L89.6320395,10.2154533 C89.5097862,10.2553133 89.3467818,10.2951732 89.2245285,10.2951732 L89.1022752,11.8497119 C89.428284,11.769992 89.7542928,11.6902721 90.0395504,11.6105521 C90.5693147,11.4909722 91.13983,11.5706922 91.7103454,11.8895719 C91.8733498,11.9692918 91.9956031,12.0490118 92.1178564,12.2084516 C92.2401096,12.3678915 92.2808607,12.5273314 92.2401096,12.6867712 C92.1993585,12.965791 91.9141009,13.1252308 91.8325987,13.2049508 C91.7918476,13.2448107 91.7103454,13.2448107 91.6288432,13.2846707 L89.3467818,13.6832704 C89.3875329,13.7231303 89.3875329,13.7629903 89.428284,13.8427102 C89.5097862,14.12173 89.3875329,14.3608898 89.2245285,14.5601896 L89.1022752,15.0783692 C89.3467818,14.9986493 89.5505373,14.9189293 89.7542928,14.8392094 C90.1618037,14.6797695 90.691568,14.6797695 91.2213322,14.8790694 C91.5065899,14.9587893 92.1178564,15.1580891 92.0771053,15.7161287 C92.0363542,16.0748684 91.7510965,16.2741682 91.3028344,16.513328 C91.2620833,16.513328 91.2213322,16.553188 91.1805811,16.553188 C90.8138213,16.6329079 90.4470614,16.7126278 90.1210526,16.7524878 C89.7542928,16.7923478 89.428284,16.8322077 89.0615241,16.8322077 L89.0615241,18.904926 L90.6100658,19.9014251 C92.8921272,20.9776442 95.1334375,21.6951236 97.2117434,22.0140034 C99.3715515,22.3727431 101.694364,22.6119029 104.13943,22.7713427 L104.546941,22.8112027 C104.791447,22.8510627 104.954452,23.0105025 104.995203,23.2496623 C105.035954,23.4888221 104.913701,23.6881219 104.669194,23.7678419 L104.180181,23.9671417 C103.03915,24.4056013 102.020373,24.7244811 101.042346,24.9237809 C100.06432,25.1629407 99.0047917,25.3223806 97.9045121,25.4419605 C97.863761,25.3622405 97.8230099,25.3622405 97.8230099,25.3622405 Z M156.137829,24.9636409 C156.097078,24.9636409 156.056327,24.9636409 156.015576,24.9636409 C154.752292,24.6846211 153.815016,24.4056013 152.510981,23.9671417 C150.677182,23.2496623 149.169391,22.6119029 147.580099,21.9741434 C146.031557,21.4161039 144.360762,20.9377843 142.608465,20.5391846 L140.122648,21.7349836 C139.592884,21.9741434 139.266875,21.9342834 139.06312,21.6552637 C139.06312,21.6552637 139.022368,21.5755437 138.777862,21.4161039 C138.737111,21.4161039 138.737111,21.3762439 138.69636,21.3762439 C138.288849,20.9377843 138.085093,20.5790446 138.085093,20.2601648 C138.085093,19.9811451 138.207346,19.5426854 139.144622,19.3832456 C139.592884,19.3433856 140.000395,19.2636657 140.448657,19.1839457 C140.856168,19.1042258 141.30443,19.0245059 141.793443,18.904926 C141.793443,18.7853461 141.793443,18.4664663 141.793443,18.2671665 C141.67119,17.748987 141.508185,17.2706674 141.345181,16.8720677 C141.182177,16.4336081 140.93767,15.9552885 140.611661,15.4769689 C140.530159,15.317529 140.530159,15.1580891 140.611661,14.9986493 C140.856168,14.5601896 140.978421,14.16159 141.059923,13.8028503 C141.100674,13.6832704 141.100674,13.5636905 141.141425,13.4042506 C140.896919,13.4839705 140.693163,13.5636905 140.489408,13.5636905 C140.163399,13.5636905 139.755888,13.4839705 139.307626,13.3245307 C139.266875,13.3245307 139.226124,13.2846707 139.185373,13.2846707 C138.777862,13.0455109 138.737111,12.7266312 138.777862,12.5671913 C138.818613,12.0490118 139.429879,11.809852 140.081897,11.5706922 C140.93767,11.2916724 141.548936,11.0126526 141.874945,10.6937729 C141.956447,10.6539129 141.997198,10.574193 142.03795,10.534333 C142.282456,10.2553133 142.649216,10.2154533 142.934474,10.4147531 L144.27926,11.4511123 C144.320011,11.4511123 144.320011,11.4909722 144.360762,11.4909722 C144.605269,11.769992 144.768273,11.9692918 144.768273,12.2483116 C144.768273,12.3678915 144.686771,12.4874714 144.605269,12.5671913 C144.523766,12.6070513 144.483015,12.6469113 144.075504,12.8462111 C143.586491,13.1252308 143.219731,13.5636905 143.015976,14.16159 C142.81222,14.6797695 142.852971,15.1182292 143.138229,15.5168288 C143.17898,15.5566888 143.17898,15.5965488 143.219731,15.6364087 C143.423487,16.1147283 143.586491,16.6329079 143.667993,17.0713675 C143.749496,17.5496871 143.790247,18.3070265 143.790247,18.865066 C143.790247,18.865066 143.790247,18.904926 143.790247,18.904926 C143.830998,18.904926 143.9125,18.9447859 143.953251,18.9447859 C147.172588,20.100725 150.025164,20.8979243 152.918492,21.296524 C155.81182,21.7349836 158.908903,21.7349836 162.209742,21.3762439 C162.291245,21.3363839 162.372747,21.3363839 162.454249,21.3363839 C162.617253,21.3363839 162.821009,21.4161039 162.902511,21.5356838 C162.984013,21.6552637 163.024764,21.8545635 162.984013,21.9741434 C162.943262,22.1335833 162.821009,22.2133032 162.576502,22.412603 C161.435471,23.1699424 160.416694,23.6881219 159.397917,24.0468616 C158.460641,24.3657414 157.401113,24.6447611 156.300833,24.8839209 C156.17858,24.9636409 156.137829,24.9636409 156.137829,24.9636409 Z M52.5077906,23.608402 C51.9372752,23.608402 51.4890132,23.2895223 51.1222533,22.6119029 C50.9592489,22.2133032 50.9592489,21.8545635 51.1222533,21.5755437 C51.2852577,21.296524 51.5705154,21.0972241 52.0187774,21.0175042 C52.0595285,20.9776442 52.0595285,20.9776442 52.1002796,20.9776442 C52.1002796,20.8979243 52.1002796,20.8580643 52.1002796,20.7384844 C52.0595285,19.9412851 51.9780263,19.1440858 51.855773,18.3468864 C51.7335197,17.5895471 51.5297643,16.7923478 51.2852577,15.9951484 C51.1630044,15.7559886 51.1630044,15.5168288 51.2445066,15.317529 C51.3260088,15.0385092 51.6927686,14.8790694 52.0595285,14.9587893 C52.5485417,14.9986493 53.0375548,15.2378091 53.526568,15.6762687 C54.1785855,16.2343082 54.2193366,16.9119277 54.0970833,17.3503873 L53.9340789,20.3797447 L54.9936075,19.9014251 C54.9936075,19.9014251 55.0343586,19.7818452 55.0343586,19.5028255 C55.0751096,18.3070265 55.0751096,17.2308074 54.9936075,16.1944483 C54.9121053,15.277669 54.789852,14.2413099 54.6268476,13.1650908 C54.0970833,13.4042506 54.0155811,13.4441106 53.8933279,13.4441106 C53.4858169,13.4441106 53.3635636,13.1252308 53.2005592,12.6469113 C53.2005592,12.6469113 53.2005592,12.6070513 53.2005592,12.6070513 C53.0375548,11.809852 52.8337993,11.0525126 52.670795,10.3350332 C52.5077906,9.65741377 52.1817818,8.93993437 51.7335197,8.18259501 L51.5297643,7.90357525 C51.407511,7.74413538 51.407511,7.54483555 51.4890132,7.38539568 C51.5705154,7.18609585 51.7335197,7.10637592 51.9372752,7.10637592 C52.7930482,7.10637592 53.6080702,7.06651595 54.382341,7.02665599 C55.0751096,7.02665599 55.8493805,6.78749619 56.6644024,6.42875649 C57.1534156,6.03015683 57.8054331,6.03015683 58.5389529,6.34903656 C59.1502193,6.62805632 59.6799836,6.94693605 60.1282456,7.34553572 C60.1689967,7.38539568 60.2504989,7.42525565 60.3320011,7.50497558 C60.3727522,7.50497558 60.3727522,7.50497558 60.4135033,7.50497558 C60.4135033,7.50497558 60.4542544,7.50497558 60.4542544,7.50497558 C60.9432675,7.46511562 61.3915296,7.38539568 61.8397917,7.30567575 C62.1658004,7.26581578 62.5325603,7.18609585 62.9400713,7.06651595 C63.1030757,6.42875649 63.1030757,5.99029686 63.1438268,5.39239736 C63.1845778,4.67491797 63.1438268,3.95743857 63.0215735,3.23995918 C63.0215735,3.20009921 63.0215735,3.20009921 63.0215735,3.16023924 L63.0215735,2.76163958 C63.0215735,2.72177961 63.0215735,2.68191965 63.0215735,2.64205968 C63.1438268,2.20360005 63.5105866,1.96444025 64.081102,2.00430022 C64.4478618,2.04416018 64.7331195,2.12388012 64.9776261,2.28331998 C65.3851371,2.44275985 65.6703947,2.64205968 65.9149013,2.84135951 C66.200159,3.08051931 66.3631634,3.59869887 65.8741502,4.43575817 C65.6703947,4.8742178 65.5073903,5.27281746 65.344386,5.67141713 C65.2221327,5.99029686 65.1813816,6.18959669 65.0998794,6.54833639 L67.911705,5.95043689 C68.2784649,5.83085699 68.6452248,5.75113706 69.0527357,5.67141713 C69.5417489,5.59169719 69.990011,5.67141713 70.4790241,5.87071696 C70.6420285,5.95043689 71.0902906,6.14973672 71.1310417,6.58819636 C71.1717928,6.98679602 70.7642818,7.26581578 70.6420285,7.34553572 C70.5605263,7.38539568 70.5197752,7.42525565 70.4790241,7.42525565 C69.7455044,7.66441545 69.0119846,7.78399535 68.3599671,7.90357525 C67.911705,7.98329518 67.4226919,8.06301511 66.9336787,8.14273505 C68.2784649,9.378394 69.5417489,10.2951732 70.7235307,10.8930727 C72.0683169,11.5706922 73.5761075,12.1287317 75.1654002,12.6070513 C75.4099068,12.6867712 75.7766667,12.7266312 75.8174178,13.1252308 C75.8581689,13.3245307 75.7359156,13.5636905 75.5321601,13.6434104 C75.491409,13.6434104 75.4099068,13.6832704 75.083898,13.7629903 C74.4726316,13.8825702 73.8613651,13.9622901 73.2908498,14.0021501 C72.7610855,14.0420101 72.1905702,14.08187 71.5793037,14.12173 C71.5385526,14.12173 71.4570504,14.08187 71.4162993,14.08187 C70.1937664,13.7231303 69.1342379,13.0056509 68.2377138,11.9692918 C67.463443,11.0126526 66.5669189,10.0161535 65.5888925,8.97979434 C65.1406305,8.58119468 64.8553728,8.50147474 64.7738706,8.50147474 C64.7738706,8.50147474 64.6516173,8.58119468 64.529364,8.97979434 C64.2033553,9.8567136 63.7550932,10.6937729 63.2253289,11.4909722 C63.3883333,11.4511123 63.5513377,11.4112523 63.7143421,11.3713923 C63.9180976,11.3315324 65.1406305,11.0525126 65.8741502,10.9329327 C66.1186568,10.8930727 66.5261678,10.8930727 66.8929276,10.9727927 C67.5449452,11.0923726 67.6671985,11.4909722 67.6671985,11.6504121 C67.7079496,12.2084516 67.055932,12.5273314 66.7299232,12.6867712 C66.6891721,12.6867712 66.6484211,12.7266312 66.60767,12.7266312 C66.2816612,12.8063511 65.792648,12.925931 65.1813816,13.0455109 C64.529364,13.2049508 63.8773465,13.2846707 63.26608,13.2448107 C63.1845778,13.2049508 63.0623246,13.2049508 62.9808224,13.1252308 C62.6955647,12.925931 62.5325603,12.6867712 62.4918092,12.4476114 C61.6767873,13.4042506 60.6580099,14.2413099 59.4762281,14.9986493 C59.435477,14.9986493 59.435477,15.0385092 59.3947259,15.0385092 L59.3132237,15.0783692 C59.435477,15.1979491 59.5169792,15.317529 59.5577303,15.5168288 C59.5984814,15.7559886 59.5577303,16.1944483 58.8242105,16.473468 C58.7834594,16.513328 58.7427083,16.513328 58.7019572,16.513328 L57.0719134,16.7524878 C57.0311623,16.7524878 57.0311623,16.7524878 56.9904112,16.7524878 L56.9904112,19.0643658 L59.6799836,17.7888469 C59.8429879,17.669267 59.9652412,17.6294071 60.1282456,17.6294071 C60.3320011,17.6294071 60.5357566,17.748987 60.6172588,17.9482868 C60.698761,18.1874466 60.6172588,18.3867464 60.4135033,18.5860462 C60.2504989,18.7056261 60.1282456,18.825206 60.0059923,18.904926 C58.8649616,19.8217052 57.6831798,20.6587645 56.5829002,21.3762439 C55.4826206,22.0538633 54.3415899,22.7713427 53.119057,23.4888221 C53.0783059,23.4888221 53.0375548,23.5286821 52.9968037,23.5286821 C52.8337993,23.568542 52.670795,23.608402 52.5077906,23.608402 Z M56.7866557,12.5273314 L57.2349178,13.0853709 C57.3571711,13.2049508 57.3571711,13.4042506 57.31642,13.5636905 C57.2349178,13.8427102 57.1534156,14.12173 57.1126645,14.3608898 C57.0719134,14.5601896 57.0311623,14.7993494 57.0311623,15.0385092 L58.3351974,14.8392094 C58.3351974,14.6797695 58.3759485,14.5601896 58.4982018,14.4406097 L58.8649616,14.12173 C59.8429879,13.1650908 60.6580099,12.2084516 61.2285252,11.2916724 C61.6767873,10.574193 62.0842982,9.81685363 62.4510581,9.05951427 C62.2880537,9.09937424 62.1658004,9.13923421 62.0027961,9.17909417 C61.5137829,9.29867407 60.9432675,9.2588141 60.4135033,8.97979434 C60.3320011,8.93993437 60.2097478,8.90007441 60.0467434,8.78049451 C59.7614857,9.05951427 59.4762281,9.378394 59.2724726,9.69727374 C59.0687171,10.0161535 58.9057127,10.3350332 58.8242105,10.6539129 C58.8649616,10.6937729 58.9057127,10.6937729 58.9057127,10.7336329 C59.0687171,10.8532128 59.3947259,11.0525126 59.3539748,11.4112523 C59.3539748,11.5706922 59.1909704,11.769992 59.027966,11.8497119 C58.9057127,11.8895719 58.7834594,11.9294319 58.620455,11.9692918 C58.2129441,12.1287317 57.8461842,12.2483116 57.4386732,12.3280315 C57.2756689,12.4077515 57.0311623,12.4476114 56.7866557,12.5273314 Z M54.5045943,8.74063454 L54.789852,10.0161535 C54.8713542,10.3748932 54.9121053,10.7336329 54.9936075,11.1322325 L55.0343586,11.1322325 C55.3196162,11.0525126 55.6048739,10.9329327 55.9308827,10.8532128 C56.1753893,10.8133528 56.4606469,10.6937729 56.7051535,10.574193 L56.8681579,9.77699367 C56.908909,9.53783387 56.9496601,9.09937424 57.0311623,8.58119468 C57.0719134,8.46161478 57.0719134,8.38189484 57.0719134,8.30217491 L54.5045943,8.74063454 Z M102.590888,21.4958238 C102.509386,21.4958238 102.346382,21.4559638 102.020373,21.256664 C101.979622,21.216804 101.857368,21.1769441 101.694364,21.0573642 C100.960844,20.5391846 100.308827,19.9811451 99.6975603,19.3832456 C99.127045,18.825206 98.6380318,18.2273065 98.2305208,17.5895471 C97.8230099,18.0678667 97.3747478,18.4664663 96.9264857,18.825206 C96.3967215,19.1839457 95.9484594,19.4629655 95.4594463,19.6622653 C95.337193,19.7021253 95.2149397,19.7419853 95.0926864,19.7419853 C94.8889309,19.7419853 94.6851754,19.5825454 94.6036732,19.3832456 C94.522171,19.0245059 94.7666776,18.825206 94.929682,18.7056261 C95.4594463,18.2273065 95.9077083,17.748987 96.3152193,17.2308074 C96.6412281,16.7923478 96.9264857,16.3538881 97.0894901,15.9154285 L96.7634814,14.9986493 C96.7634814,15.0385092 96.7227303,15.0783692 96.7227303,15.1182292 C96.7227303,15.1580891 96.7227303,15.1979491 96.6819792,15.2378091 C96.3152193,15.7559886 96.0299616,16.1944483 95.7039528,16.5930479 C95.4186952,17.0315076 95.0111842,17.4699672 94.5629221,17.9084268 L93.7479002,18.9447859 C93.7479002,18.9447859 93.7071491,18.9846459 93.7071491,18.9846459 C93.666398,18.9846459 93.5848958,19.0643658 93.4626425,19.3035256 C93.3811403,19.4231055 93.218136,19.7419853 92.8513761,19.7419853 C92.6476206,19.7419853 92.4438651,19.6224054 92.3623629,19.4231055 C92.2401096,19.1440858 92.0363542,18.825206 91.8325987,18.5063263 C91.5065899,17.9881468 91.547341,17.4699672 91.954852,17.0713675 C92.0771053,16.7923478 92.1993585,16.513328 92.2808607,16.2741682 C92.403114,15.9951484 92.4846162,15.7559886 92.5661184,15.4769689 C92.6068695,14.7196295 92.6068695,13.9224302 92.5661184,13.2049508 C92.5253673,12.4874714 92.4438651,11.769992 92.2808607,10.9727927 C92.2401096,10.8532128 92.1586075,10.7734928 92.1586075,10.6539129 C92.1586075,10.4944731 92.1586075,10.2951732 92.3216118,10.0958734 C92.403114,9.9762935 92.6068695,9.89657357 92.7698739,9.89657357 L93.2996382,9.93643353 C93.3403893,9.93643353 93.3403893,9.93643353 93.3811403,9.93643353 C93.3811403,9.93643353 93.4218914,9.93643353 93.5033936,9.93643353 C93.7479002,9.93643353 94.1554112,9.8567136 94.6444243,9.7371337 C94.9704331,9.65741377 95.0926864,9.57769384 95.1741886,9.53783387 C95.1741886,9.4979739 95.1741886,9.4979739 95.1741886,9.4979739 C94.9704331,8.50147474 94.7666776,7.54483555 94.48142,6.62805632 C94.2369134,5.75113706 93.8701535,4.7546379 93.4218914,3.71827877 L93.3403893,3.55883891 C93.3403893,3.51897894 93.2996382,3.43925901 93.2996382,3.39939904 C93.2588871,2.96093941 93.5033936,2.72177961 93.6256469,2.64205968 C93.7886513,2.52247978 93.9924068,2.48261981 94.2776645,2.52247978 C94.7666776,2.56233975 95.2964419,2.72177961 95.785455,3.00079938 C96.192966,3.23995918 96.6412281,3.75813874 96.600477,4.71477793 C96.5597259,5.4721173 96.5597259,6.22945666 96.6412281,6.90707609 C96.7227303,7.58469552 96.8042325,8.26231494 96.9264857,8.97979434 C96.9264857,8.97979434 96.9672368,8.97979434 96.9672368,8.97979434 L98.2712719,8.54133471 C98.312023,8.54133471 98.312023,8.54133471 98.3527741,8.54133471 C98.5157785,8.50147474 98.6787829,8.46161478 98.8825384,8.38189484 C99.2085471,8.26231494 99.575307,8.26231494 99.9013158,8.46161478 C100.227325,8.58119468 100.471831,8.78049451 100.594084,9.01965431 C100.716338,9.21895414 100.716338,9.41825397 100.594084,9.6175538 C100.43108,9.89657357 100.105071,9.9762935 99.9420669,9.9762935 L97.3339967,10.8133528 C97.3339967,10.8930727 97.3747478,10.9727927 97.3747478,11.0923726 C97.5785033,11.6902721 97.7415077,12.2881716 97.9045121,12.8462111 C98.0267653,13.1650908 98.1490186,13.5238305 98.2712719,13.8825702 C98.3527741,13.6035504 98.4750274,13.3245307 98.5565296,13.0455109 C98.719534,12.5273314 98.8010362,11.9692918 98.8010362,11.4511123 C98.8010362,11.3315324 98.7602851,10.8930727 99.0862939,10.6539129 C99.2900493,10.534333 99.6160581,10.4944731 99.982818,10.6937729 C100.471831,10.9329327 100.879342,11.2119525 101.123849,11.6105521 C101.368355,11.9294319 101.490609,12.4874714 101.083098,13.2448107 L99.5345559,16.1944483 L100.512582,17.4301072 C100.716338,17.6294071 101.001595,17.8685669 101.368355,18.1475866 C101.53136,18.2671665 101.653613,18.3468864 101.735115,18.3867464 C101.857368,18.1475866 101.979622,17.9482868 102.101875,17.748987 C102.224128,17.5098272 102.346382,17.2308074 102.468635,16.9517876 C102.509386,16.7126278 102.590888,16.3140282 103.03915,16.3140282 C103.242906,16.3140282 103.446661,16.513328 103.528163,16.7126278 C103.528163,16.7524878 103.568914,16.8720677 103.568914,17.1909474 C103.528163,17.7888469 103.487412,18.3468864 103.446661,18.904926 C103.365159,19.4231055 103.324408,19.9811451 103.202155,20.6587645 C103.161404,21.0175042 103.079901,21.4958238 102.590888,21.4958238 Z M94.6851754,11.8497119 C94.6851754,11.8895719 94.6851754,11.9294319 94.7259265,12.0091518 C94.7259265,12.0490118 94.7259265,12.0888717 94.7259265,12.0888717 C94.7259265,12.886071 94.6851754,13.6035504 94.6851754,14.3210298 C94.6851754,14.7594895 94.6444243,15.2378091 94.6036732,15.7559886 L95.8262061,14.8392094 C95.9484594,14.7196295 96.0707127,14.6000496 96.192966,14.5203297 C96.2744682,14.4804697 96.3967215,14.4406097 96.4782237,14.4406097 C96.600477,14.4406097 96.7227303,14.4804697 96.8042325,14.5601896 L95.7447039,11.5308322 L94.6851754,11.8497119 Z M148.476623,19.5426854 C148.395121,19.5426854 148.272867,19.5028255 148.150614,19.4231055 C147.743103,19.1042258 147.457845,18.7853461 147.25409,18.4266064 C147.091086,18.1475866 146.968832,17.8685669 146.88733,17.5496871 C146.805828,17.3503873 146.765077,17.1510875 146.846579,16.9916476 C146.928081,16.8322077 147.091086,16.6727679 147.25409,16.6329079 C147.335592,16.6329079 147.417094,16.5930479 147.539348,16.553188 C148.598876,16.0350084 149.373147,15.357389 149.86216,14.5601896 C150.310422,13.8028503 150.59568,13.0056509 150.717933,12.0888717 L148.069112,12.5273314 C147.661601,12.5273314 147.539348,12.5273314 147.417094,12.5273314 C147.213339,12.5273314 147.009583,12.4077515 146.683575,12.1685917 C146.479819,12.0490118 146.316815,11.8895719 146.235312,11.6902721 C146.113059,11.4511123 146.113059,11.0525126 146.561321,10.7734928 C146.602072,10.7336329 146.683575,10.6937729 146.765077,10.6937729 C148.476623,10.4546131 150.147418,10.1755933 151.777462,9.8567136 C153.407505,9.53783387 154.956047,9.13923421 156.300833,8.66091461 C157.238109,8.42175481 157.849375,8.34203488 158.338388,8.46161478 C158.78665,8.58119468 159.275663,8.82035447 159.805428,9.17909417 C160.25369,9.53783387 160.335192,9.8567136 160.294441,10.0958734 C160.294441,10.3350332 160.131436,10.7336329 159.479419,10.8532128 L153.040746,11.730132 C153.244501,12.0490118 153.326003,12.2084516 153.366754,12.3280315 C153.529759,12.7664911 153.244501,13.2448107 152.999995,13.5636905 C152.999995,13.6035504 152.999995,13.6434104 152.959243,13.6434104 C152.429479,14.16159 151.940466,14.6797695 151.573706,15.1979491 C151.3292,15.5168288 151.084693,15.8357086 150.880937,16.1944483 L155.44506,15.5168288 L154.711541,14.08187 C154.670789,14.0021501 154.589287,13.8825702 154.548536,13.8028503 C154.426283,13.5238305 154.548536,13.3245307 154.589287,13.2448107 C154.670789,13.0853709 154.874545,13.0056509 155.037549,13.0056509 C155.159803,13.0056509 155.282056,13.0056509 155.404309,13.0853709 C156.54534,13.5238305 157.523366,14.2811699 158.297637,15.277669 C159.112659,16.3538881 159.357166,17.5098272 158.949655,18.6657662 C158.908903,18.7056261 158.908903,18.7454861 158.868152,18.7853461 C158.582895,19.1042258 158.338388,19.3433856 158.093882,19.4231055 C158.012379,19.4629655 157.930877,19.4629655 157.849375,19.4629655 C157.319611,19.4629655 157.034353,18.9846459 156.952851,18.825206 L156.708344,18.3468864 C156.504589,18.0280067 156.300833,17.669267 156.137829,17.2706674 C156.056327,17.0713675 155.974825,16.9517876 155.934073,16.8720677 C154.915296,17.1909474 153.489008,17.3902473 152.592484,17.748987 C151.655208,18.1077266 150.554929,18.5860462 149.413898,19.1440858 L148.721129,19.5028255 C148.639627,19.5426854 148.558125,19.5426854 148.476623,19.5426854 Z M115.997999,9.13923421 C115.67199,9.13923421 115.30523,8.97979434 114.897719,8.62105464 C114.1642,7.98329518 113.471431,7.26581578 112.941667,6.50847642 C112.778662,6.30917659 112.574907,6.03015683 112.69716,5.75113706 C112.737911,5.59169719 112.900916,5.4721173 113.06392,5.43225733 C113.186173,5.39239736 113.308427,5.39239736 113.593684,5.43225733 C114.001195,5.43225733 114.408706,5.4721173 114.775466,5.59169719 C115.142226,5.71127709 115.549737,5.87071696 115.997999,6.07001679 C116.446261,6.26931662 116.77227,6.50847642 116.894523,6.82735615 C117.016776,7.06651595 117.220532,7.58469552 117.179781,7.82385531 C116.935274,8.90007441 116.40551,9.13923421 115.997999,9.13923421 Z M100.716338,8.30217491 C100.471831,8.30217491 100.186573,8.18259501 99.8605647,8.02315515 C99.0047917,7.54483555 98.312023,6.90707609 97.8230099,6.07001679 C97.4970011,5.59169719 97.7007566,5.31267743 97.8230099,5.19309753 C97.9860142,5.07351763 98.1897697,4.9937977 98.5565296,5.07351763 C99.0047917,5.07351763 99.4530537,5.15323756 100.023569,5.31267743 C100.675587,5.51197726 101.205351,5.95043689 101.53136,6.62805632 C101.53136,6.66791629 101.572111,6.70777625 101.572111,6.74763622 C101.653613,7.34553572 101.612862,7.74413538 101.368355,8.02315515 C101.205351,8.18259501 100.960844,8.30217491 100.716338,8.30217491 Z M143.301234,8.30217491 C143.17898,8.30217491 143.056727,8.26231494 142.975225,8.18259501 C142.404709,7.70427541 141.956447,7.22595582 141.630439,6.82735615 C141.30443,6.46861646 140.93767,5.91057693 140.489408,5.2329575 L140.448657,5.15323756 C140.448657,5.15323756 140.448657,5.1133776 140.407906,5.1133776 C140.367155,5.03365766 140.326404,4.95393773 140.326404,4.8742178 C140.326404,4.7546379 140.326404,4.635058 140.407906,4.55533807 C140.489408,4.43575817 140.652412,4.2763183 141.019172,4.2763183 C141.141425,4.2763183 141.345181,4.31617827 141.548936,4.35603824 C141.915696,4.3958982 142.282456,4.5154781 142.730718,4.635058 C143.17898,4.79449787 143.627242,5.03365766 144.075504,5.39239736 C144.116255,5.39239736 144.116255,5.43225733 144.157007,5.43225733 C144.605269,5.95043689 144.809024,6.46861646 144.727522,6.94693605 C144.64602,7.46511562 144.27926,7.90357525 143.627242,8.26231494 C143.423487,8.30217491 143.382736,8.30217491 143.301234,8.30217491 Z M150.921689,7.78399535 C150.554929,7.78399535 150.22892,7.70427541 149.86216,7.50497558 C149.821409,7.50497558 149.780658,7.46511562 149.780658,7.42525565 C149.373147,7.06651595 149.373147,6.70777625 149.454649,6.50847642 C149.576902,5.99029686 150.147418,5.67141713 151.410702,5.39239736 C153.122248,4.9937977 153.896519,4.67491797 154.222527,4.5154781 C154.263278,4.47561813 154.30403,4.47561813 154.344781,4.47561813 L154.507785,4.43575817 C154.833794,4.23645834 155.200554,4.19659837 155.567314,4.31617827 C155.852571,4.3958982 156.137829,4.47561813 156.463838,4.635058 C156.504589,4.635058 156.504589,4.67491797 156.54534,4.67491797 C156.708344,4.79449787 157.156606,5.1133776 157.075104,5.63155716 C157.034353,5.91057693 156.830598,6.18959669 156.463838,6.42875649 C156.423087,6.46861646 156.382336,6.46861646 156.341584,6.50847642 C155.608065,6.74763622 154.915296,6.94693605 154.30403,7.14623588 C153.652012,7.34553572 152.959243,7.50497558 152.184973,7.62455548 C151.858964,7.70427541 151.532955,7.74413538 151.166195,7.78399535 C151.084693,7.78399535 151.003191,7.78399535 150.921689,7.78399535 Z M40.754,9.546875 C30.545,4.265625 15.252,2.396875 5.453,9.2625 L0.369,7.434375 C6.519,2.03125 15.088,-0.690625 24.026,0.73125 C30.75,1.7875 36.531,5.0375 40.754,9.546875 Z M8.241,32.825 C18.901,35.871875 29.274,34.53125 35.711,30.021875 L40.795,31.85 C34.645,37.253125 26.076,39.975 17.138,38.553125 C10.414,37.496875 4.633,34.246875 0.41,29.7375 C2.788,30.996875 5.453,32.0125 8.241,32.825 Z M13.9022989,26.7972973 L10.1609195,26.7972973 L7.22413793,21.3648649 L6.29885057,22.8243243 L6.29885057,26.7972973 L3,26.7972973 L3,12.0810811 L6.29885057,12.0810811 L6.29885057,17.1081081 L9.51724138,12.0810811 L13.137931,12.0810811 L9.23563218,18.2432432 L13.9022989,26.7972973 Z M22.0287356,26.7972973 L18.7298851,26.7972973 L18.7298851,20.0675676 L14.4252874,12.0810811 L17.9655172,12.0810811 L20.3793103,16.5405405 L22.8333333,12.0810811 L26.2931034,12.0810811 L22.0287356,20.0675676 L22.0287356,26.7972973 Z M37.7586207,26.7972973 L28.183908,26.7972973 L28.183908,12.0810811 L37.7586207,12.0810811 L37.7586207,15.0405405 L31.4827586,15.0405405 L31.4827586,17.9189189 L37.316092,17.9189189 L37.316092,20.8783784 L31.4827586,20.8783784 L31.4827586,23.8378378 L37.7586207,23.8378378 L37.7586207,26.7972973 Z" id="logo-purple"></path>
                </g>
            </g>
        </g>
    </g>
</svg>